<svg width="54" height="56" viewBox="0 0 54 56" fill="none" xmlns="http://www.w3.org/2000/svg">
<path fill-rule="evenodd" clip-rule="evenodd" d="M4.75684 0.432345C3.0371 0.96653 1.59046 2.23788 0.724719 3.97622L0 5.43151L0.00279821 27.9841L0.00559641 50.5369L0.666238 51.9566C1.93184 54.676 4.38693 55.9963 8.17785 55.9963H10.3797L10.2966 54.2465L10.2132 52.4967L7.66635 52.3567C4.96083 52.208 4.4538 51.9854 3.75903 50.641C3.14483 49.4525 3.16078 6.515 3.77581 5.32457C4.63904 3.65454 4.71095 3.64166 13.2 3.64166H20.9587L21.0423 10.5922L21.126 17.5428L21.8706 18.6677C23.2184 20.704 23.8318 20.8484 31.5429 20.9439L38.3222 21.0276L38.3984 26.2633L38.4745 31.4988L39.9261 31.5828C41.168 31.6548 41.4237 31.5808 41.6963 31.0713C41.9173 30.6583 41.9867 28.3598 41.9235 23.5681C41.8381 17.1094 41.7928 16.5875 41.2259 15.5404C40.8923 14.9245 37.4926 11.3157 33.6709 7.52038C27.9523 1.842 26.5242 0.565891 25.603 0.312797C23.8531 -0.168194 6.36689 -0.0679642 4.75684 0.432345ZM31.4732 10.3551C36.2645 15.1521 38.0925 17.1545 37.8771 17.3701C37.6748 17.5725 35.5915 17.6436 31.5479 17.5859C26.0835 17.5084 25.4656 17.4504 24.9323 16.9669C24.3671 16.4545 24.3438 16.1819 24.3438 10.0376C24.3438 6.51976 24.4393 3.64166 24.5559 3.64166C24.6726 3.64166 27.7853 6.66283 31.4732 10.3551ZM18.82 38.539C17.4268 38.8441 17.3485 39.3151 17.3485 47.3796C17.3485 54.5032 17.3765 54.9044 17.9081 55.4364C18.6317 56.1604 19.641 56.15 20.3089 55.4117C20.699 54.9806 20.8649 54.2899 20.941 52.7825L21.0443 50.7385L22.8043 50.6262C24.1382 50.5414 24.8898 50.3129 25.9077 49.683C30.0067 47.1475 29.3729 40.6715 24.8579 38.9539C24.0008 38.628 19.7482 38.3357 18.82 38.539ZM32.9512 38.5409C31.4072 38.8105 31.3392 39.1829 31.3392 47.3796C31.3392 56.4471 31.1584 55.9963 34.7952 55.9963C38.3483 55.9963 40.0806 55.2149 41.2091 53.1031C41.7838 52.0274 41.832 51.5663 41.8292 47.1772C41.8264 43.2853 41.7419 42.2646 41.3644 41.5778C40.7522 40.4635 39.5033 39.3053 38.5089 38.9293C37.5945 38.5835 34.104 38.3396 32.9512 38.5409ZM46.8015 38.5555C45.4116 38.8237 45.3299 39.3128 45.3299 47.3796C45.3299 54.5032 45.3579 54.9044 45.8895 55.4364C46.6143 56.1615 47.6227 56.1497 48.2945 55.4078C48.7308 54.926 48.8449 54.2904 48.923 51.9082L49.0184 48.997H50.8895C53.0878 48.997 54.0064 48.5169 54 47.3712C53.9921 46.019 53.6309 45.788 51.2869 45.6374L49.1074 45.4974L49.024 43.7476L48.9409 41.9977H50.8507C53.0894 41.9977 54.0064 41.5243 54 40.3719C53.9944 39.3808 53.7367 39.0155 52.7912 38.6557C52.0401 38.3699 48.1037 38.3041 46.8015 38.5555ZM24.3654 42.8161C25.4043 43.8559 25.4729 45.2692 24.5372 46.3577C24.0358 46.9409 23.566 47.1405 22.4386 47.2489L20.9861 47.3883V44.693V41.9977H22.2668C23.3091 41.9977 23.6997 42.15 24.3654 42.8161ZM37.7125 42.4337C38.3094 42.8519 38.3346 43.0432 38.3346 47.173C38.3346 52.1912 38.2624 52.3567 36.0762 52.3567H34.697V47.364C34.697 44.6177 34.7809 42.287 34.8836 42.1845C35.2342 41.8337 37.0897 41.9969 37.7125 42.4337Z" fill="#A2A2A2"/>
</svg>
