<svg width="306" height="306" viewBox="0 0 306 306" fill="none" xmlns="http://www.w3.org/2000/svg">
<path d="M110.923 86.537H105.923H99.6464C97.0215 86.537 95.5433 86.7361 94.6511 87.0397C94.0108 87.2576 93.7696 87.4809 93.5126 87.9252C93.1195 88.6049 92.6565 89.9546 92.3462 92.6639C92.0421 95.3191 91.9273 98.8294 91.9224 103.542V103.543C91.9136 111.284 91.375 118.698 90.3927 125.11C89.424 131.433 87.9758 137.11 85.9829 141.184C85.9828 141.184 85.9827 141.184 85.9826 141.185L81.4914 138.987C79.7987 142.448 76.399 146.677 73.3339 149.417L110.923 86.537ZM110.923 86.537V81.537M110.923 86.537V81.537M110.923 81.537V72.037V62.5371V57.4549M110.923 81.537V57.4549M50.3884 168.735L50.3881 168.735L45.4451 168.26L40.9234 167.826V163.283V152.41V141.537V136.542L45.9187 136.537L50.1687 136.533H50.1692C52.282 136.531 53.8884 136.009 55.1462 135.16C56.419 134.3 57.6237 132.909 58.5959 130.726L58.5963 130.725C59.9121 127.772 60.3681 125.309 61.012 108.347L61.012 108.347C61.2182 102.926 61.5318 97.4442 61.8726 92.9653C62.1994 88.6706 62.5801 84.8547 62.9872 83.0822L50.3884 168.735ZM50.3884 168.735C53.1669 169.002 54.6666 169.576 55.6493 170.263M50.3884 168.735L55.6493 170.263M110.923 57.4549L105.842 57.5377M110.923 57.4549L105.842 57.5377M105.842 57.5377L99.0923 57.6477M105.842 57.5377L99.0923 57.6477M228.705 152.682C228.497 152.495 228.291 152.306 228.087 152.115C226.02 150.177 223.722 147.619 222.252 145.281L222.252 145.28C216.466 136.073 215.273 128.229 214.04 102.966C213.796 97.959 213.601 94.3846 213.293 91.7295C212.974 88.977 212.591 87.8716 212.345 87.4325C212.339 87.4229 212.337 87.4136 212.334 87.4042C212.322 87.3558 212.309 87.3034 211.871 87.1686C210.978 86.8935 209.572 86.7312 206.777 86.5233C206.777 86.5233 206.776 86.5233 206.776 86.5233L200.053 86.0233L195.565 85.6895L195.426 81.1912L195.136 71.7922L195.136 71.7917L194.847 62.3917L194.678 56.9063L200.155 57.2477L209.444 57.8267C209.444 57.8267 209.444 57.8267 209.444 57.8267C214.667 58.1518 221.447 59.1682 224.608 60.3028L228.705 152.682ZM228.705 152.682C223.019 157.385 218.536 165.985 216.613 174.443C215.682 178.535 214.725 189.311 214.379 198.365C214.208 202.837 213.949 207.237 213.671 210.708C213.532 212.447 213.39 213.922 213.256 215.042C213.104 216.319 213.002 216.753 213.021 216.691C212.888 217.13 212.765 217.304 212.704 217.377C212.649 217.445 212.506 217.6 212.094 217.808C211.1 218.311 209.174 218.828 205.299 219.233C205.299 219.233 205.298 219.233 205.298 219.233L199.404 219.849L194.923 220.317V224.822V233.679V242.537V247.549L199.935 247.537L206.685 247.521C206.685 247.521 206.685 247.521 206.685 247.521C220.623 247.489 231.857 243.694 238.045 234.662C242.837 227.669 244.018 219.029 244.885 198.246C245.187 191.02 245.516 185.512 246.018 181.255C246.525 176.945 247.172 174.295 247.925 172.6C248.593 171.098 249.287 170.461 250.115 170.015C251.171 169.447 252.814 169.003 255.768 168.642C255.768 168.642 255.768 168.642 255.768 168.642L261.029 168L265.423 167.464V163.037V152.537V142.037V137.516L260.925 137.062L255.866 136.552L255.866 136.552C253.331 136.297 251.681 135.754 250.53 135.047C249.452 134.386 248.506 133.394 247.681 131.66C245.855 127.819 244.923 121.066 244.923 109.06C244.923 94.8739 243.848 84.2024 240.822 76.3634C237.63 68.095 232.299 63.0625 224.609 60.3032L228.705 152.682ZM135.93 152.177C135.945 161.617 143.142 169.398 152.669 169.502H152.67C170.227 169.689 176.43 146.731 161.426 137.868C160.095 137.082 158.479 136.528 157.06 136.17C155.608 135.803 153.945 135.537 152.401 135.537C150.422 135.537 148.447 135.801 146.379 136.858C144.503 137.816 142.888 139.266 141.27 140.883L141.27 140.884C139.64 142.513 138.163 144.142 137.202 146.062C136.146 148.176 135.927 150.191 135.93 152.177ZM135.93 152.177L140.93 152.169M135.93 152.177C135.93 152.178 135.93 152.178 135.93 152.179L140.93 152.169M140.93 152.169C140.941 159.039 146.097 164.43 152.723 164.502L140.93 152.169ZM55.6493 170.263C56.6072 170.933 57.5761 172.061 58.6194 174.404L55.6493 170.263ZM99.0923 57.6477C89.1755 57.8086 81.0491 59.4509 74.848 63.7195M99.0923 57.6477L74.848 63.7195M74.848 63.7195C68.4787 68.1038 64.9089 74.7126 62.9873 83.0817L74.848 63.7195ZM180.962 159.794C183.905 165.487 189.476 169.537 195.91 169.537C212.277 169.537 220.049 148.253 205.817 138.676L182.057 143.655C180.439 146.056 179.258 148.652 179.046 151.583C178.832 154.542 179.647 157.252 180.962 159.794ZM180.962 159.794L185.403 157.498L180.962 159.795C180.962 159.795 180.962 159.795 180.962 159.794ZM133.031 5.59796L133.031 5.59794C137.861 5.00629 147.509 4.86506 157.398 5.12446C167.303 5.38427 176.767 6.02845 181.258 6.85707L181.259 6.85714C192.257 8.88538 203.021 12.6493 217.235 19.5669C232.536 27.0137 239.049 31.2531 249.868 40.7123C266.026 54.8382 275.16 66.6302 284.781 85.7816C296.743 109.591 300.884 126.806 300.884 152.537C300.884 174.738 297.885 190.126 290.057 208.551C279.032 234.504 262.635 255.488 239.97 272.636L239.969 272.636C236.193 275.493 228.122 280.067 219.222 284.509C210.373 288.924 201.255 292.935 195.544 294.774C182.429 298.995 166.559 300.856 147.591 300.221L147.59 300.221C123.842 299.427 111.416 296.487 91.2651 286.963C76.8398 280.144 66.5676 273.617 56.902 265.222L53.6234 268.997L56.9019 265.222C35.5355 246.666 20.7832 224.476 11.6257 197.065L11.6257 197.065C2.74704 170.49 2.80862 133.067 11.7082 107.563C27.7627 61.5561 58.8101 29.6812 103.909 12.8349C114.834 8.75454 122.237 6.92014 133.031 5.59796ZM242.986 276.623C266.343 258.952 283.289 237.269 294.659 210.506L242.986 276.623ZM78.8689 154.053C78.3788 153.556 77.8574 153.049 77.3161 152.549L96.3793 247.256C96.3794 247.256 96.3795 247.256 96.3796 247.256L105.629 247.801L110.923 248.113V242.81V233.816V224.822V220.317L106.443 219.849L100.397 219.217L100.397 219.217C96.9574 218.858 95.2828 218.458 94.3606 218.049C93.8697 217.832 93.6137 217.641 93.3142 217.158C93.2697 216.966 93.2118 216.676 93.1449 216.272C92.9887 215.328 92.8224 214.003 92.6579 212.326C92.3302 208.985 92.0321 204.485 91.8191 199.331C91.0344 180.337 89.2549 169.128 84.7373 161.418L84.7368 161.417C83.2975 158.962 81.0501 156.263 78.8689 154.053ZM70.3092 237.261L74.0624 233.957L58.6195 174.404C59.9091 177.302 60.3641 179.819 61.0158 197.367C61.4586 209.292 62.0276 217.271 63.3144 223.15C64.6745 229.363 66.8567 233.338 70.3091 237.26C70.3091 237.261 70.3092 237.261 70.3092 237.261ZM93.1504 216.874C93.1512 216.876 93.1521 216.878 93.153 216.879C93.1523 216.878 93.1517 216.877 93.1511 216.876L93.1504 216.874ZM93.3595 217.339C93.3682 217.364 93.372 217.378 93.3714 217.377C93.3708 217.376 93.3668 217.364 93.3595 217.339ZM121.067 140.274L121.066 140.274C119.486 138.826 117.876 137.547 116.002 136.702C114.007 135.802 112.087 135.557 110.135 135.577L110.135 135.577C103.814 135.645 97.9102 138.576 94.9946 144.217C90.633 152.653 93.3467 161.21 99.196 165.889C105.08 170.596 114.017 171.26 121.066 164.8L121.067 164.8C122.681 163.32 124.418 161.689 125.41 159.41C126.396 157.147 126.423 154.756 126.423 152.537C126.423 150.318 126.396 147.927 125.41 145.664C124.418 143.385 122.681 141.754 121.067 140.274ZM205.817 138.676C201.854 136.009 197.324 134.956 192.89 135.912C188.481 136.862 184.741 139.672 182.057 143.655L205.817 138.676Z" fill="#D0C455" stroke="#D0C455" stroke-width="10"/>
</svg>
