<svg width="42" height="56" viewBox="0 0 42 56" fill="none" xmlns="http://www.w3.org/2000/svg">
<path fill-rule="evenodd" clip-rule="evenodd" d="M8.07481 25.7743C8.07481 25.4774 8.27165 25.0364 8.51222 24.7941C9.32606 23.9758 11.025 24.3004 11.4218 25.3497C11.7005 26.0871 13.6512 34.5673 14.3461 38.0634C14.6051 39.3653 14.9152 40.6886 15.0352 41.0039C15.2332 41.5228 15.2727 41.4973 15.4526 40.737C16.5223 36.2103 19.5661 25.0198 19.807 24.728C20.2508 24.1901 21.8334 24.2631 22.3228 24.8442C22.55 25.1139 23.5114 28.1698 24.4592 31.6354C26.9008 40.5634 27.1697 41.3912 27.3632 40.5679C27.4498 40.1988 28.2264 36.7463 29.0884 32.8956C29.9507 29.045 30.8102 25.5794 30.9987 25.1943C31.4416 24.2883 32.9346 24.0864 33.7437 24.823C33.8383 24.909 33.9207 24.9826 33.9866 25.0688C34.4254 25.6431 34.1291 26.7792 31.7813 35.9252C30.4557 41.0899 29.3704 44.7731 29.0792 45.0968C28.7142 45.5023 28.2213 45.6379 27.1104 45.6379C25.8725 45.6379 25.5657 45.5343 25.2466 45.0078C25.0367 44.6611 24.0814 41.2901 23.1236 37.5165C21.419 30.799 21.2099 29.9408 21.0796 29.9526C21.0528 29.955 21.0294 29.9942 20.997 30.0268C20.914 30.1103 20.2229 32.6803 19.4611 35.7379C17.5166 43.5437 17.0513 45.022 16.4355 45.3536C15.7012 45.7488 13.8466 45.7093 13.2711 45.2858C12.9398 45.0422 12.0672 42.0712 10.4337 35.6242C9.13618 30.5037 8.07481 26.0714 8.07481 25.7743Z" fill="#A2A2A2"/>
<path fill-rule="evenodd" clip-rule="evenodd" d="M3.2023 0.386749C2.10418 0.879915 0.969584 2.11885 0.432774 3.41156C0.0535543 4.32479 0.000374544 7.34484 0.000374544 27.9948C0.000374544 53.7363 -0.0672837 52.6321 1.6161 54.4143C3.17363 56.0635 2.39709 55.9997 20.8775 55.9997C34.5317 55.9997 38.0621 55.9252 38.7849 55.6213C40 55.1105 41.3969 53.4532 41.7622 52.0882C41.9657 51.3282 42.0364 44.8425 41.9827 31.827L41.9039 12.6837L41.1482 11.5876C39.8385 9.68689 30.8397 0.890557 29.7263 0.422595C28.8486 0.053771 26.8751 -0.00839992 16.367 0.00084169C6.68628 0.0095232 3.85828 0.0924177 3.2023 0.386749ZM24.7243 16.447C24.6934 16.4061 24.5995 13.5373 24.5155 10.0717L24.3629 3.77058L14.4274 3.69693L9.45957 3.66024L4.49171 3.62355L4.05597 4.24946C3.66895 4.80508 3.61995 7.4675 3.61995 27.9948C3.61995 48.4664 3.66951 51.1856 4.05346 51.7365L4.48669 52.359H21.0034C34.4309 52.359 37.5777 52.2893 37.8282 51.9855C38.0443 51.7236 38.1587 46.5304 38.2105 34.6224L38.2843 17.633L32.4373 17.6319C27.0996 17.631 26.5115 17.5826 25.6854 17.076C25.1876 16.7707 24.7552 16.4876 24.7243 16.447ZM33.1334 13.9924C35.8898 13.9924 38.1451 13.8966 38.1451 13.7795C38.1451 13.6622 35.8898 11.3008 33.1334 8.53141L28.1217 3.49641V8.74424V13.9924H33.1334Z" fill="#A2A2A2"/>
</svg>
